<svg width="26" height="26" viewBox="0 0 26 26" fill="none" xmlns="http://www.w3.org/2000/svg">
<rect width="26" height="26" rx="13" fill="#37BCAB"/>
<path d="M22.9374 9.95376C22.5684 8.784 22.0193 7.67659 21.2824 6.70895C20.5692 5.74454 19.6705 4.9285 18.7092 4.30061C17.7436 3.66842 16.7089 3.23514 15.6904 2.95667C14.6709 2.67821 13.6675 2.5879 12.7461 2.6008C11.8236 2.61155 10.9821 2.75562 10.256 2.9427C9.52771 3.12762 8.90626 3.3491 8.41752 3.58026C7.92554 3.79099 7.51663 4.01355 7.29006 4.15117C7.04947 4.29524 6.8229 4.44038 6.67293 4.54682C6.51649 4.66294 6.28776 4.83389 6.01803 5.06612C5.47966 5.53596 4.75895 6.27997 4.10729 7.31964C3.94438 7.57875 3.7847 7.85614 3.63689 8.15073C3.46642 8.48295 3.38442 8.75927 3.2474 9.07966C3.01112 9.72798 2.84713 10.4817 2.73276 11.2181C2.67558 11.5912 2.66156 11.9783 2.61193 12.3632C2.61408 12.7513 2.5828 13.147 2.61408 13.5426C2.65185 13.9372 2.66264 14.3393 2.75003 14.7328L2.859 15.3274L3.02407 15.9101C3.23661 16.6917 3.58294 17.4282 3.95624 18.1335C4.36515 18.8173 4.81289 19.4689 5.33616 20.0247C5.59618 20.3042 5.8508 20.5806 6.13779 20.8117C6.41075 21.0601 6.68803 21.2891 6.9815 21.4815C7.26417 21.6912 7.54684 21.8815 7.84138 22.0342C8.12514 22.1944 8.40889 22.3653 8.68185 22.4804C9.81146 22.9868 10.8181 23.2029 11.5269 23.3018C12.2379 23.3985 12.649 23.3996 12.649 23.3996C12.649 23.3996 12.8054 23.3985 13.0967 23.3953C13.3891 23.3985 13.8185 23.3695 14.358 23.2996C15.4326 23.1545 16.9797 22.7685 18.5592 21.7675C19.3458 21.2719 20.1323 20.6279 20.8303 19.8269C21.5349 19.0216 22.1401 18.0744 22.59 17.0111C23.5168 14.8962 23.67 12.2944 22.9374 9.95376ZM11.6467 22.461C10.9993 22.3696 10.0639 22.1686 9.04113 21.7084C8.77032 21.5912 8.52649 21.4504 8.25353 21.3074C7.97948 21.174 7.71515 21.0042 7.45082 20.8171C7.17462 20.6472 6.91352 20.4419 6.65674 20.2182C6.38486 20.0118 6.14426 19.7613 5.8972 19.5086C5.39874 19.0065 4.97042 18.4098 4.5723 17.7819C4.21302 17.1326 3.87964 16.4488 3.66925 15.7209L3.50634 15.1779L3.39737 14.6221C3.30674 14.2544 3.2938 13.8781 3.25172 13.5071C3.21504 13.1362 3.24093 12.7653 3.23122 12.3987C3.26574 12.0353 3.30027 11.6751 3.36392 11.3267C3.51066 10.6193 3.72859 10.0021 3.99293 9.40113C4.27668 8.77432 4.51835 8.26685 4.83879 7.78196C5.30811 7.04333 5.81412 6.48102 6.24676 6.06064C7.58568 5.21557 8.17477 7.26481 8.25029 7.51962C8.3722 7.9443 8.48225 8.40877 8.58259 8.89904C8.63006 9.14095 8.67861 9.40866 8.70559 9.64949C8.74335 9.92796 8.77356 10.1881 8.79622 10.4462C8.87713 11.5332 8.9246 12.733 8.96668 13.9393C9.02386 15.1467 9.10154 16.3649 9.29035 17.5261C9.3853 18.1066 9.51692 18.6829 9.71436 19.2377C9.90533 19.7645 10.1395 20.258 10.3844 20.6709C10.6282 21.0902 10.8731 21.4525 11.1018 21.7643C11.3133 22.0438 11.4935 22.2858 11.6823 22.4664C11.6704 22.4642 11.6607 22.4621 11.6467 22.461ZM12.417 16.6799C12.2131 17.84 12.1829 18.9367 12.1807 19.8613C12.1807 20.4902 12.2034 21.0354 12.2325 21.4934C12.1743 21.3902 12.1149 21.288 12.0577 21.1719C11.8948 20.8569 11.7254 20.4978 11.5712 20.1C11.4169 19.6946 11.2745 19.2775 11.1709 18.8066C11.0792 18.3604 11.0296 17.8529 10.9756 17.3089C10.8807 16.2187 10.7943 15.0199 10.6724 13.8146C10.5365 12.6072 10.4016 11.3912 10.147 10.2355C10.0801 9.93226 10.0165 9.64304 9.9323 9.38931C9.84599 9.09687 9.7532 8.84851 9.65718 8.58939C9.46945 8.07977 9.2472 7.61746 9.02279 7.20352C8.5772 6.37136 8.09708 5.75099 7.7432 5.34244C7.63531 5.21879 7.5436 5.11988 7.46053 5.03387C7.51663 4.99301 7.60187 4.93173 7.73889 4.83281C7.97517 4.65864 8.27618 4.46081 8.72609 4.2146C9.61187 3.74369 11.0026 3.19966 12.759 3.1416C14.5025 3.06741 16.5773 3.55876 18.4147 4.74895C19.0868 5.18976 19.7212 5.72411 20.2812 6.34448C20.1614 6.41866 20.0071 6.51435 19.8086 6.63692C19.3555 6.92721 18.7211 7.3605 17.9896 7.93355C17.2602 8.50876 16.4165 9.21298 15.6322 10.0946C15.2448 10.5376 14.8629 11.016 14.5166 11.5321C14.1584 12.0428 13.8649 12.6051 13.565 13.1663L13.1938 14.0082C13.0719 14.3092 12.9586 14.6145 12.8583 14.9199C12.6663 15.508 12.526 16.1026 12.417 16.6799ZM13.1259 22.0266C13.1054 22.0191 13.0827 22.0159 13.0568 22.0051C13.0266 21.9922 13.0029 21.9804 12.977 21.96C12.4494 21.5503 12.6673 20.1129 13.634 17.6916C14.5953 15.2844 15.7724 12.9169 17.093 10.6623C18.7038 7.91097 19.8992 6.72831 20.5714 7.15407C20.6092 7.17664 20.6167 7.1831 20.6394 7.20567C21.1184 7.65186 20.6976 9.56348 19.4903 12.3589C19.0965 13.2738 18.6779 14.1899 18.364 14.8091C17.407 16.7476 16.56 18.3174 15.6462 19.6839C14.4767 21.4342 13.6416 22.1901 13.1259 22.0266ZM21.9858 16.7562C21.551 17.7465 20.9598 18.6335 20.2995 19.3613C19.636 20.0967 18.8959 20.6838 18.159 21.131C16.6787 22.0352 15.2416 22.3675 14.2512 22.4857C14.0807 22.504 13.9404 22.5137 13.7948 22.5255C14.2091 22.2406 14.7259 21.8664 15.3096 21.3945C15.6678 21.1031 16.0475 20.7762 16.4435 20.4171C16.8416 20.0602 17.2311 19.6538 17.626 19.2205C18.0036 18.7754 18.3834 18.3012 18.7265 17.7873C18.9002 17.5218 19.0728 17.2487 19.2357 16.9702L19.6576 16.1907C19.9478 15.5682 20.1905 15.0306 20.3901 14.4328C20.5919 13.8501 20.7451 13.2631 20.8713 12.6932C21.1108 11.5493 21.1831 10.4623 21.2177 9.54305C21.2436 8.72916 21.2576 8.1217 21.2284 7.60456C21.7474 8.39372 22.1121 9.20761 22.3883 10.1183C23.054 12.3417 22.877 14.7833 21.9858 16.7562Z" fill="white"/>
</svg>
