<svg width="30" height="35" viewBox="0 0 30 35" fill="none" xmlns="http://www.w3.org/2000/svg">
<path d="M22.9544 4.21097C22.2536 3.94048 21.7054 3.9302 21.2786 4.17952C20.6858 4.52586 20.4639 5.28516 20.3131 6.31866C20.2899 6.47753 20.2374 6.62814 20.1645 6.77006L19.8072 6.34278C19.6521 6.15733 19.3762 6.13277 19.1909 6.28776C19.0055 6.44275 18.9809 6.71865 19.1359 6.90405L19.6019 7.46143C19.4289 7.61434 19.2456 7.74603 19.0767 7.85415C16.6465 5.64785 11.9971 4.59351 7.84251 6.41272C6.13623 7.15999 5.1678 8.08329 5.12739 8.12223C5.06422 8.18326 4.43574 8.81781 4.63672 9.72564C4.73554 10.172 5.01763 10.5919 5.47876 10.9838C5.22933 12.1905 5.05219 13.7534 5.46099 14.8466C6.03259 16.3752 4.1465 18.2991 4.12768 18.3181C3.97822 18.468 3.95755 18.7034 4.07852 18.8771C4.10395 18.9136 4.70585 19.7609 6.03554 20.2364C6.06152 20.7396 5.59032 22.0698 6.44467 23.2264C7.2009 24.2503 9.43974 23.4873 10.8047 23.4627C11.2507 23.4549 11.3427 23.5395 11.3427 23.5395C11.6112 24.2931 11.954 25.1434 11.965 26.0153C11.9762 26.8974 11.6194 27.4489 10.8422 27.7505C8.28193 28.7444 7.99563 31.4074 7.98469 31.5203C7.95981 31.7768 8.16161 32 8.42018 32H20.8826C21.2265 32 21.4361 31.62 21.2526 31.329C20.2662 29.7655 17.7758 25.3225 17.9152 23.3006C19.1222 21.1926 20.7405 17.9041 21.3087 15.4741C21.716 13.7316 21.5192 11.6892 20.7054 10.0251C20.9226 9.83617 21.1449 9.64859 21.3203 9.51657L21.6255 9.88161C21.7801 10.0664 22.056 10.0921 22.2419 9.93663C22.4064 9.79909 22.4439 9.56644 22.3421 9.38619C22.7645 9.44547 23.3333 9.51356 24.1782 9.4627C26.6126 9.31624 25.3549 5.13755 22.9544 4.21097ZM20.1047 31.125H8.95164C9.14043 30.4222 9.67927 29.1406 11.1588 28.5663C12.2743 28.1332 12.8557 27.2473 12.84 26.0042C12.8274 25.0011 12.4655 24.0827 12.1669 23.2459C11.8599 22.3838 10.6579 22.5544 9.38532 22.735C8.58671 22.8483 7.37979 23.0196 7.14851 22.7065C7.05007 22.5732 6.97755 22.4363 6.92505 22.2975C7 22 6.08666 21.1745 6.5 21C6.21715 20.6796 6.89918 22.142 6.80517 21.9194V21.5244C6.80517 21.5244 6.80517 22.4317 6.80517 21.4282C6.81321 21.2234 6.83843 21.0217 6.86271 20.8283C7.09475 18.9802 6.30193 19.8374 5.02709 18.6276C5.62051 17.93 6.89186 16.1746 6.2806 14.5401C6.03461 13.8823 6.03068 12.8276 6.26414 11.5298C6.90476 11.8971 7.66285 12.1954 8.35794 12.4244C9.71963 12.8729 11.1374 13.9776 12.5717 15.708C12.774 15.952 13.1589 15.9058 13.2998 15.6247C13.5288 15.1673 13.9299 14.5808 14.439 14.5329C14.6348 14.5153 14.7845 14.7203 14.8559 14.8447C15.3548 15.7147 15.02 17.0247 14.4517 17.8154C14.3476 17.9603 14.3418 18.1538 14.4372 18.3046C15.3913 19.8133 16.2928 21.5178 17.0426 23.2359C16.8936 25.4453 19.1524 29.5168 20.1047 31.125ZM20.4566 15.2748C19.8947 17.6776 18.3014 20.7769 17.5337 22.1869C16.9013 20.8136 16.1293 19.3696 15.328 18.0783C16.6393 15.965 15.7827 13.2611 14.0906 13.7102C13.6262 13.8335 13.2036 14.1617 12.8431 14.6796C9.73735 11.1695 8.20881 11.9009 6.21979 10.4602C5.71316 10.0826 5.54302 9.75933 5.49314 9.54528C5.38891 9.09782 5.71977 8.76684 5.73421 8.75263C5.74318 8.74398 6.65265 7.88264 8.22653 7.19986C12.0357 5.54733 16.4849 6.48147 18.7074 8.70844C20.4047 10.4082 20.9954 12.9706 20.4566 15.2748ZM20.2656 9.24849C20.2556 9.23432 20.0405 8.89082 19.6993 8.49291C19.8736 8.37435 20.0279 8.25458 20.165 8.13481L20.7586 8.84467C20.6088 8.95902 20.4409 9.09804 20.2656 9.24849ZM24.6085 8.13175C24.5608 8.43893 24.4208 8.5715 24.1256 8.58927C22.7102 8.67448 22.1558 8.38873 21.576 8.45829L20.7579 7.47986C21.0208 7.09792 21.1361 6.73911 21.1789 6.44505C21.2732 5.79967 21.411 5.11557 21.7201 4.93504C21.8996 4.83015 22.2089 4.86116 22.6393 5.0273C23.916 5.52004 24.7441 7.25832 24.6085 8.13175Z" fill="white" stroke="white" stroke-width="0.25"/>
</svg>
