<svg width="24" height="23" viewBox="0 0 24 23" fill="none" xmlns="http://www.w3.org/2000/svg">
<g clip-path="url(#clip0)">
<path d="M0.999023 9.39316C0.931641 9.93223 0.886719 10.4803 0.886719 11.0373C0.886719 15.9338 3.56855 20.1969 7.53965 22.4564L8.28086 20.8932V10.2152L7.45879 9.39316H0.999023ZM23.8867 10.2152C23.8867 9.39316 23.0646 8.57109 22.2426 8.57109H15.6705C16.0793 6.92695 16.4926 5.2873 16.4926 4.46523C16.4926 2.82109 15.6705 1.18145 15.2617 0.768164C15.2527 0.75918 14.8529 0.359375 14.0309 0.359375C12.8 0.359375 12.8 1.59023 12.8 1.59023C12.8 1.6127 12.3912 3.64316 12.3912 4.46523C12.3912 5.2873 10.7471 8.57109 9.925 9.39316L9.10293 9.80195V21.302L9.925 21.7107H18.9588C20.6029 21.7107 21.425 20.8887 21.425 20.0666C21.425 19.2445 20.6029 18.4225 19.7809 18.4225C21.425 18.4225 22.2471 17.6004 22.2471 16.7783C22.2471 15.9562 21.425 15.1342 20.6029 15.1342C22.2471 15.1342 23.0691 14.3121 23.0691 13.49C23.0691 12.668 22.2471 11.8459 21.425 11.8459C23.0646 11.8594 23.8867 11.0373 23.8867 10.2152Z" fill="white"/>
</g>
<defs>
<clipPath id="clip0">
<rect width="23" height="23" fill="white" transform="translate(0.886719)"/>
</clipPath>
</defs>
</svg>
