<svg width="18" height="19" viewBox="0 0 18 19" fill="none" xmlns="http://www.w3.org/2000/svg">
<path d="M12.5324 12.5345C13.0479 12.2575 13.6381 12.0998 14.2666 12.0998H14.2687C14.3326 12.0998 14.3625 12.0231 14.3156 11.9805C13.662 11.394 12.9154 10.9202 12.1063 10.5787C12.0978 10.5744 12.0892 10.5723 12.0807 10.568C13.4037 9.60716 14.2645 8.04552 14.2645 6.2836C14.2645 3.36484 11.9039 1 8.9915 1C6.07913 1 3.72068 3.36484 3.72068 6.2836C3.72068 8.04552 4.5814 9.60716 5.90656 10.568C5.89804 10.5723 5.88952 10.5744 5.881 10.5787C4.92867 10.9813 4.07434 11.5587 3.33933 12.2958C2.60855 13.0253 2.02676 13.89 1.62642 14.8418C1.23252 15.7738 1.01993 16.7723 1.00005 17.784C0.999485 17.8067 1.00347 17.8293 1.01178 17.8505C1.02009 17.8717 1.03256 17.891 1.04844 17.9072C1.06433 17.9235 1.08331 17.9365 1.10427 17.9453C1.12523 17.9541 1.14775 17.9587 1.17049 17.9587H2.44665C2.53826 17.9587 2.61496 17.8841 2.61709 17.7925C2.6597 16.1478 3.31802 14.6074 4.4834 13.4399C5.68712 12.2319 7.28925 11.5672 8.99364 11.5672C10.2016 11.5672 11.3606 11.9017 12.3598 12.5281C12.3855 12.5442 12.4149 12.5533 12.4452 12.5544C12.4755 12.5555 12.5056 12.5486 12.5324 12.5345ZM8.99364 9.94804C8.01787 9.94804 7.09963 9.56668 6.40723 8.87428C6.06655 8.53448 5.79647 8.13064 5.61255 7.68602C5.42863 7.24139 5.33451 6.76477 5.33559 6.2836C5.33559 5.30571 5.71695 4.38534 6.40723 3.69293C7.0975 3.00053 8.01574 2.61917 8.99364 2.61917C9.97153 2.61917 10.8876 3.00053 11.58 3.69293C11.9207 4.03273 12.1908 4.43657 12.3747 4.88119C12.5586 5.32582 12.6528 5.80244 12.6517 6.2836C12.6517 7.2615 12.2703 8.18187 11.58 8.87428C10.8876 9.56668 9.9694 9.94804 8.99364 9.94804ZM16.8296 15.0186H15.04V13.229C15.04 13.1352 14.9633 13.0585 14.8695 13.0585H13.6764C13.5827 13.0585 13.506 13.1352 13.506 13.229V15.0186H11.7164C11.6227 15.0186 11.546 15.0953 11.546 15.189V16.3821C11.546 16.4758 11.6227 16.5525 11.7164 16.5525H13.506V18.3422C13.506 18.4359 13.5827 18.5126 13.6764 18.5126H14.8695C14.9633 18.5126 15.04 18.4359 15.04 18.3422V16.5525H16.8296C16.9233 16.5525 17 16.4758 17 16.3821V15.189C17 15.0953 16.9233 15.0186 16.8296 15.0186Z" fill="#9C27B0" stroke="#9C27B0" stroke-width="0.5"/>
</svg>
