<svg width="19" height="22" viewBox="0 0 19 22" fill="none" xmlns="http://www.w3.org/2000/svg">
<path d="M18.6022 6.34286C18.3208 6.00676 17.8196 5.96257 17.4835 6.24284L15.2808 8.09313L14.2678 5.58344C14.2318 5.48924 14.1771 5.41015 14.1143 5.34037C13.9073 4.87984 13.548 4.48442 13.0525 4.25532C12.8374 4.15763 12.6152 4.1053 12.3931 4.07971C12.3443 4.05412 12.3001 4.0204 12.2443 4.00295L8.36807 2.92255C8.15059 2.86324 7.93195 2.90162 7.75285 3.00628C7.54003 3.07839 7.35744 3.23306 7.27022 3.45752L5.81069 7.21044C5.65252 7.61864 5.85488 8.07918 6.26425 8.23967C6.67129 8.39783 7.13299 8.19431 7.29231 7.78495L8.52507 4.61584L10.2905 5.10662C10.2474 5.17639 10.2009 5.24152 10.166 5.31595L7.90288 10.2214C7.87031 10.2935 7.85287 10.3667 7.82961 10.4412L5.07917 15.0524L0.47612 16.5922C-0.0448923 16.9818 -0.155375 17.7156 0.22957 18.2366C0.61684 18.7588 1.353 18.8693 1.87285 18.4843L6.5829 16.862C6.72711 16.7573 6.83178 16.6201 6.91086 16.4724C6.97017 16.4096 7.03762 16.3596 7.08298 16.2816L8.72277 13.5324L11.6337 16.013L8.51925 19.5229C8.09012 20.0066 8.13314 20.7521 8.61927 21.1801C9.10423 21.6116 9.84737 21.5662 10.2788 21.0801L14.1655 16.7015C14.2864 16.5666 14.3585 16.4107 14.4074 16.2479C14.4365 16.1595 14.4365 16.0677 14.4434 15.9758C14.4434 15.9293 14.4609 15.8874 14.4574 15.8444C14.4469 15.5234 14.3167 15.2117 14.0538 14.9896L11.3755 12.7055C11.5686 12.5217 11.7326 12.3031 11.8512 12.0461L13.5863 8.28851L14.1422 9.76898C14.1655 9.9004 14.2097 10.0295 14.3027 10.1376C14.3865 10.2377 14.4935 10.3039 14.6074 10.3505C14.6191 10.3563 14.633 10.3574 14.647 10.3609C14.7191 10.3865 14.7923 10.4109 14.8679 10.4144C14.9575 10.4226 15.0482 10.4109 15.1401 10.3854C15.1424 10.3842 15.1436 10.3842 15.1436 10.3842C15.168 10.3784 15.1924 10.383 15.2168 10.3726C15.3459 10.3237 15.4448 10.2411 15.5297 10.1446L18.6906 7.46164C19.0267 7.17904 18.8848 6.67896 18.6022 6.34286Z" fill="white"/>
<path d="M14.6041 4.43093C15.8277 4.43093 16.8196 3.43903 16.8196 2.21547C16.8196 0.991898 15.8277 0 14.6041 0C13.3806 0 12.3887 0.991898 12.3887 2.21547C12.3887 3.43903 13.3806 4.43093 14.6041 4.43093Z" fill="white"/>
</svg>
