<svg width="19" height="20" viewBox="0 0 19 20" fill="none" xmlns="http://www.w3.org/2000/svg">
<path d="M18.5162 0.307447C18.4189 0.209988 18.3034 0.132667 18.1762 0.0799113C18.0491 0.0271552 17.9127 0 17.7751 0C17.6374 0 17.501 0.0271552 17.3739 0.0799113C17.2467 0.132667 17.1312 0.209988 17.0339 0.307447L0.30586 17.0355C0.111754 17.2336 0.00210228 17.4993 1.20802e-06 17.7766C-0.000313633 17.984 0.0609197 18.1867 0.175941 18.3591C0.290963 18.5316 0.454595 18.6661 0.646101 18.7454C0.837606 18.8248 1.04837 18.8455 1.25167 18.805C1.45497 18.7645 1.64167 18.6645 1.78809 18.5178L18.5162 1.78968C18.6136 1.69243 18.691 1.57692 18.7437 1.44974C18.7965 1.32257 18.8236 1.18624 18.8236 1.04856C18.8236 0.910884 18.7965 0.774557 18.7437 0.647385C18.691 0.520214 18.6136 0.404697 18.5162 0.307447Z" fill="white"/>
<circle cx="4" cy="4" r="3.25" stroke="white" stroke-width="1.5"/>
<circle cx="15" cy="16" r="3.25" stroke="white" stroke-width="1.5"/>
</svg>
