<svg width="17" height="17" viewBox="0 0 17 17" fill="none" xmlns="http://www.w3.org/2000/svg">
<path d="M8.54304 0.68219C4.2628 0.68219 0.792236 4.32628 0.792236 8.82053C0.792236 13.3148 4.2628 16.9589 8.54304 16.9589C12.8233 16.9589 16.2938 13.3148 16.2938 8.82053C16.2938 4.32628 12.8233 0.68219 8.54304 0.68219ZM8.54304 13.5437C8.16069 13.5437 7.851 13.2185 7.851 12.817C7.851 12.4156 8.16069 12.0904 8.54304 12.0904C8.92539 12.0904 9.23507 12.4156 9.23507 12.817C9.23507 13.2185 8.92539 13.5437 8.54304 13.5437ZM9.63127 9.55625C9.47458 9.61978 9.33977 9.73141 9.24441 9.87659C9.14905 10.0218 9.09756 10.1937 9.09667 10.3701V10.7825C9.09667 10.8624 9.03438 10.9278 8.95826 10.9278H8.12782C8.05169 10.9278 7.98941 10.8624 7.98941 10.7825V10.3919C7.98941 9.97225 8.10533 9.55807 8.3337 9.21292C8.55688 8.87503 8.8683 8.61707 9.23507 8.46993C9.82331 8.23196 10.2039 7.71423 10.2039 7.14927C10.2039 6.34815 9.45826 5.69599 8.54304 5.69599C7.62782 5.69599 6.88215 6.34815 6.88215 7.14927V7.28733C6.88215 7.36726 6.81987 7.43265 6.74375 7.43265H5.9133C5.83718 7.43265 5.7749 7.36726 5.7749 7.28733V7.14927C5.7749 6.43534 6.07247 5.76865 6.61226 5.27272C7.13129 4.79496 7.8164 4.53337 8.54304 4.53337C9.26968 4.53337 9.95479 4.79678 10.4738 5.27272C11.0136 5.76865 11.3112 6.43534 11.3112 7.14927C11.3112 8.19926 10.652 9.14389 9.63127 9.55625Z" fill="#9C27B0"/>
</svg>
