<svg width="23" height="23" viewBox="0 0 23 23" fill="none" xmlns="http://www.w3.org/2000/svg">
<circle cx="11.5" cy="11.5" r="11.5" fill="#9C27B0"/>
<path d="M10.3422 11.0472C10.2912 11.4008 10.3169 11.7612 10.4175 12.104C10.5181 12.4468 10.6912 12.764 10.9252 13.034C11.1591 13.3041 11.4484 13.5206 11.7734 13.669C12.0983 13.8175 12.4514 13.8942 12.8087 13.8942L14.9227 13.8943C15.5759 13.883 16.1984 13.6156 16.6563 13.1497C17.1142 12.6837 17.3707 12.0566 17.3707 11.4034C17.3707 10.7501 17.1141 10.123 16.6562 9.65703C16.1982 9.19108 15.5757 8.92362 14.9225 8.91224L13.714 8.90866" stroke="white" stroke-width="1.15345" stroke-linecap="round" stroke-linejoin="round"/>
<path d="M12.456 11.7519C12.507 11.3984 12.4813 11.0379 12.3807 10.6951C12.2801 10.3523 12.107 10.0351 11.873 9.7651C11.6391 9.49507 11.3498 9.27851 11.0249 9.1301C10.6999 8.98169 10.3468 8.90491 9.98952 8.90495L7.8755 8.90486C7.22233 8.91618 6.59977 9.18359 6.1419 9.6495C5.68402 10.1154 5.42747 10.7425 5.4275 11.3958C5.42753 12.049 5.68414 12.6762 6.14205 13.1421C6.59997 13.6081 7.22256 13.8755 7.87572 13.8869L9.08071 13.887" stroke="white" stroke-width="1.15345" stroke-linecap="round" stroke-linejoin="round"/>
</svg>
