<svg width="22" height="22" viewBox="0 0 22 22" fill="none" xmlns="http://www.w3.org/2000/svg">
<path d="M20.9756 4.74667C20.9393 4.619 20.8765 4.49936 20.7908 4.39467C20.705 4.28998 20.598 4.20232 20.476 4.13676L14.9486 1.1372C14.828 1.07068 14.6945 1.02722 14.5559 1.00931C14.4173 0.991396 14.2764 0.99939 14.1411 1.03283C14.0058 1.06627 13.8789 1.1245 13.7675 1.20417C13.6562 1.28385 13.5627 1.38341 13.4924 1.49715L11.0051 5.55655L8.51773 1.49715C8.4474 1.38341 8.3539 1.28385 8.24258 1.20417C8.13127 1.1245 8.00433 1.06627 7.86904 1.03283C7.73375 0.99939 7.59278 0.991396 7.4542 1.00931C7.31562 1.02722 7.18216 1.07068 7.06148 1.1372L1.53408 4.13676C1.41209 4.20232 1.30512 4.28998 1.21937 4.39467C1.13362 4.49936 1.07078 4.619 1.03449 4.74667C0.96414 5.00008 1.00231 5.26934 1.14079 5.49656L5.39263 12.3256C4.91828 13.143 4.65604 14.0543 4.6273 14.9852C4.62477 15.8933 4.84147 16.7902 5.26105 17.6081C5.68064 18.426 6.29217 19.1436 7.04952 19.7068C7.80688 20.2701 8.6903 20.6642 9.63317 20.8596C10.576 21.0549 11.5538 21.0464 12.4926 20.8345C13.4315 20.6227 14.3069 20.2132 15.053 19.6368C15.7991 19.0604 16.3963 18.3321 16.7996 17.507C17.203 16.6819 17.4019 15.7814 17.3814 14.8735C17.3609 13.9655 17.1215 13.0738 16.6813 12.2656L20.8268 5.50656C20.904 5.39552 20.9569 5.27114 20.9824 5.14068C21.008 5.01022 21.0057 4.87628 20.9756 4.74667ZM3.56434 5.36658L7.24218 3.36687L10.6649 8.98605C9.20591 9.07084 7.82339 9.62918 6.75322 10.5658L3.56434 5.36658ZM11.0051 18.9846C9.8774 18.9846 8.79593 18.5632 7.99855 17.8132C7.20118 17.0631 6.75322 16.0459 6.75322 14.9852C6.75322 13.9245 7.20118 12.9072 7.99855 12.1572C8.79593 11.4071 9.8774 10.9858 11.0051 10.9858C12.1327 10.9858 13.2142 11.4071 14.0116 12.1572C14.8089 12.9072 15.2569 13.9245 15.2569 14.9852C15.2569 16.0459 14.8089 17.0631 14.0116 17.8132C13.2142 18.5632 12.1327 18.9846 11.0051 18.9846ZM15.2569 10.5358C14.6798 10.04 14.0092 9.65003 13.2798 9.38599L12.2381 7.55626L14.8105 3.36687L18.4883 5.36658L15.2569 10.5358Z" fill="white" stroke="#2D2E35" stroke-width="0.3"/>
</svg>
