<svg width="24" height="22" viewBox="0 0 24 22" fill="none" xmlns="http://www.w3.org/2000/svg">
<path d="M16.5555 11H18.7778V15.4444H16.5555V11Z" fill="white"/>
<path d="M21 5.44444V3.22222C21 1.99667 20.0033 1 18.7778 1H4.33333C2.49556 1 1 2.49556 1 4.33333V17.6667C1 20.1122 2.99333 21 4.33333 21H21C22.2256 21 23.2222 20.0033 23.2222 18.7778V7.66667C23.2222 6.44111 22.2256 5.44444 21 5.44444ZM4.33333 3.22222H18.7778V5.44444H4.33333C4.04724 5.43165 3.77712 5.30899 3.5792 5.10202C3.38127 4.89505 3.27081 4.61971 3.27081 4.33333C3.27081 4.04696 3.38127 3.77162 3.5792 3.56465C3.77712 3.35767 4.04724 3.23502 4.33333 3.22222V3.22222ZM21 18.7778H4.34667C3.83333 18.7644 3.22222 18.5611 3.22222 17.6667V7.46111C3.57111 7.58667 3.94111 7.66667 4.33333 7.66667H21V18.7778Z" fill="white" stroke="#2D2E35" stroke-width="0.5"/>
</svg>
