<svg width="30" height="35" viewBox="0 0 30 35" fill="none" xmlns="http://www.w3.org/2000/svg">
<path d="M24.6999 28.7767V31.5333C24.6999 31.791 24.4854 32 24.2209 32C23.9563 32 23.7419 31.791 23.7419 31.5333V28.7767C23.7419 26.6304 21.9591 24.8933 19.7558 24.8934C18.7133 24.8934 17.7674 24.3759 17.2256 23.5092C17.0879 23.2891 17.1595 23.002 17.3854 22.8679C17.6113 22.7338 17.906 22.8036 18.0437 23.0237C18.4103 23.61 19.0503 23.96 19.7558 23.96C22.4883 23.96 24.6999 26.1142 24.6999 28.7767ZM16.7083 25.163L15 26.4515L12.0956 24.2607C12.7226 23.7701 13.128 23.0564 13.1937 22.2459C13.7668 22.4103 14.373 22.4989 15.0001 22.4989C18.5328 22.4989 21.4068 19.6989 21.4068 16.2572C21.4068 16.2209 21.4076 12.9899 21.4052 12.9537C21.3889 12.7012 21.1728 12.5166 20.9278 12.5166C20.8457 12.5166 20.2556 12.6304 19.6778 12.2917C18.7768 11.7636 18.7722 10.6061 18.7723 10.5945C18.7746 10.2153 18.3345 9.99153 18.0165 10.2107C16.0435 11.5714 13.7333 12.4942 11.2246 12.8363C10.9627 12.872 10.78 13.1079 10.8167 13.3631C10.8502 13.5965 11.0554 13.7652 11.2905 13.7652C11.366 13.7652 12.9191 13.58 14.6847 12.9552C15.8222 12.5527 16.9121 12.0275 17.934 11.39C18.2871 12.6806 19.2772 13.3987 20.4488 13.4635V16.2572C20.4488 19.1843 18.0046 21.5656 15.0002 21.5656C11.9957 21.5656 9.55149 19.1843 9.55149 16.2572V12.9833C9.55149 12.7256 9.33701 12.5167 9.07248 12.5167C8.80795 12.5167 8.59348 12.7256 8.59348 12.9833V16.2573C8.59348 18.7389 10.0879 20.8867 12.2459 21.892V22.0151C12.2459 23.0908 11.3511 23.96 10.2444 23.96C9.63843 23.96 9.04135 24.0668 8.47654 24.2771L8.16729 24.0373C5.74047 22.1556 5.28596 18.8336 6.94098 16.4133C7.64631 15.3818 8.0546 14.148 8.0546 12.828V10.3002C8.0546 7.34092 10.5257 4.93333 13.5631 4.93333H16.4372C19.4746 4.93333 21.9457 7.34081 21.9457 10.3V12.8278C21.9457 14.1117 22.329 15.349 23.0541 16.4057C24.3802 18.3383 24.3776 20.8748 23.0073 22.812C22.8572 23.0242 22.912 23.3148 23.1299 23.4611C23.3477 23.6072 23.6459 23.5538 23.796 23.3416C25.3912 21.0867 25.393 18.1351 23.8505 15.887C23.2311 14.9843 22.9037 13.9265 22.9037 12.8278V10.3C22.9037 6.82619 20.0028 4 16.4371 4H13.5631C9.99744 4 7.09653 6.82631 7.09653 10.3002V12.8278C7.09653 13.9233 6.76704 14.9842 6.14355 15.8959C4.21227 18.7205 4.75959 22.5621 7.54027 24.7434C6.17427 25.6164 5.30027 27.099 5.30027 28.7767V31.5333C5.30027 31.791 5.51474 32 5.77927 32C6.0438 32 6.25828 31.791 6.25828 31.5333V28.7767C6.25828 26.6303 8.04107 24.8933 10.2444 24.8934C10.5618 24.8934 10.8755 24.8443 11.1762 24.7477L14.7068 27.4106C14.8795 27.5408 15.1207 27.5408 15.2933 27.4106L17.2948 25.901C17.504 25.7432 17.5422 25.4502 17.3803 25.2463C17.2184 25.0426 16.9176 25.0053 16.7083 25.163Z" fill="white" stroke="white" stroke-width="0.25"/>
</svg>
