<svg width="22" height="22" viewBox="0 0 22 22" fill="none" xmlns="http://www.w3.org/2000/svg">
<path d="M19.2122 1H3.02357C1.90757 1 1 1.90757 1 3.02357V15.165C1 16.281 1.90757 17.1886 3.02357 17.1886H6.05894V21L12.4099 17.1886H19.2122C20.3282 17.1886 21.2357 16.281 21.2357 15.165V3.02357C21.2357 1.90757 20.3282 1 19.2122 1ZM19.2122 15.165H11.8494L8.08251 17.4243V15.165H3.02357V3.02357H19.2122V15.165Z" fill="white" stroke="#2D2E35" stroke-width="0.5"/>
<path d="M12.9423 8.27373L11.5268 6.85925L7.61218 10.7688V12.1843H9.02767L12.9423 8.27373Z" fill="white"/>
<path d="M13.273 5.11389L14.6874 6.52938L13.6089 7.60795L12.1934 6.19347L13.273 5.11389Z" fill="white"/>
</svg>
