<svg width="22" height="22" viewBox="0 0 22 22" fill="none" xmlns="http://www.w3.org/2000/svg">
<path d="M15.36 13C15.44 12.34 15.5 11.68 15.5 11C15.5 10.32 15.44 9.66 15.36 9H18.74C18.9 9.64 19 10.31 19 11C19 11.69 18.9 12.36 18.74 13H15.36ZM13.59 18.56C14.19 17.45 14.65 16.25 14.97 15H17.92C16.9512 16.6683 15.4141 17.932 13.59 18.56V18.56ZM13.34 13H8.66C8.56 12.34 8.5 11.68 8.5 11C8.5 10.32 8.56 9.65 8.66 9H13.34C13.43 9.65 13.5 10.32 13.5 11C13.5 11.68 13.43 12.34 13.34 13ZM11 18.96C10.17 17.76 9.5 16.43 9.09 15H12.91C12.5 16.43 11.83 17.76 11 18.96ZM7 7H4.08C5.03886 5.32721 6.5748 4.06149 8.4 3.44C7.8 4.55 7.35 5.75 7 7ZM4.08 15H7C7.35 16.25 7.8 17.45 8.4 18.56C6.57862 17.9317 5.04485 16.6677 4.08 15V15ZM3.26 13C3.1 12.36 3 11.69 3 11C3 10.31 3.1 9.64 3.26 9H6.64C6.56 9.66 6.5 10.32 6.5 11C6.5 11.68 6.56 12.34 6.64 13H3.26ZM11 3.03C11.83 4.23 12.5 5.57 12.91 7H9.09C9.5 5.57 10.17 4.23 11 3.03V3.03ZM17.92 7H14.97C14.657 5.76146 14.1936 4.5659 13.59 3.44C15.43 4.07 16.96 5.34 17.92 7ZM11 1C5.47 1 1 5.5 1 11C1 13.6522 2.05357 16.1957 3.92893 18.0711C4.85752 18.9997 5.95991 19.7362 7.17317 20.2388C8.38642 20.7413 9.68678 21 11 21C13.6522 21 16.1957 19.9464 18.0711 18.0711C19.9464 16.1957 21 13.6522 21 11C21 9.68678 20.7413 8.38642 20.2388 7.17317C19.7362 5.95991 18.9997 4.85752 18.0711 3.92893C17.1425 3.00035 16.0401 2.26375 14.8268 1.7612C13.6136 1.25866 12.3132 1 11 1V1Z" fill="white" stroke="#2D2E35" stroke-width="0.3"/>
</svg>
