<svg width="24" height="20" viewBox="0 0 24 20" fill="none" xmlns="http://www.w3.org/2000/svg">
<path d="M18.4881 10.8334L20.0948 13.9192L23.5301 14.4142L21.0091 16.6667L21.657 20L18.4881 18.125L15.3192 20L15.9671 16.6667L13.4461 14.4142L16.9755 13.9192L18.4881 10.8334Z" fill="white"/>
<path d="M3.36108 10H8.40308V11.6667H3.36108V10Z" fill="white"/>
<path d="M3.36108 6.66663H11.7644V8.33329H3.36108V6.66663Z" fill="white"/>
<path d="M3.36108 3.33337H11.7644V5.00004H3.36108V3.33337Z" fill="white"/>
<path d="M11.7647 18.3333H1.68066V1.66666H21.8486V9.99999H23.5293V1.66666C23.5293 1.22464 23.3522 0.800715 23.0371 0.488155C22.7219 0.175594 22.2944 0 21.8486 0H1.68066C1.23492 0 0.807441 0.175594 0.492255 0.488155C0.177069 0.800715 0 1.22464 0 1.66666V18.3333C0 18.7753 0.177069 19.1993 0.492255 19.5118C0.807441 19.8244 1.23492 20 1.68066 20H11.7647V18.3333Z" fill="white"/>
</svg>
