<svg width="26" height="24" viewBox="0 0 26 24" fill="none" xmlns="http://www.w3.org/2000/svg">
<path d="M24.9781 9.62186C24.981 9.61391 24.9818 9.6057 24.9842 9.59748C24.9882 9.58414 24.9922 9.5708 24.9946 9.55694C24.9967 9.54488 24.9975 9.53307 24.9983 9.52101C24.9994 9.50844 25.0002 9.49587 24.9999 9.48329C24.9997 9.47072 24.9981 9.4584 24.9965 9.44608C24.9949 9.43402 24.9935 9.42222 24.9906 9.41041C24.9879 9.39835 24.9839 9.38681 24.9799 9.375C24.9759 9.3632 24.9722 9.35165 24.9669 9.34036C24.9618 9.32932 24.9557 9.3188 24.9495 9.30803C24.9434 9.29725 24.937 9.28647 24.9298 9.27595C24.9223 9.26543 24.9138 9.25594 24.9053 9.24618C24.8973 9.2372 24.8895 9.22796 24.8805 9.2195C24.8701 9.20975 24.8583 9.20102 24.8469 9.1923C24.8402 9.18716 24.8346 9.18126 24.8274 9.17664C24.8218 9.17279 24.8159 9.16971 24.8101 9.16586C24.8098 9.16561 24.8095 9.16561 24.8093 9.16535C22.5464 7.68445 19.92 7.1992 17.7799 7.8687C17.3609 7.99957 16.9553 8.1792 16.5638 8.3986C16.6603 7.97263 16.7128 7.54562 16.7128 7.12299C16.7128 4.95745 15.4221 2.70415 13.2598 1.0911C13.2595 1.09084 13.2595 1.09084 13.2592 1.09058C13.2536 1.08648 13.2485 1.08212 13.2432 1.07801C13.2363 1.07288 13.2288 1.0698 13.2216 1.06518C13.2096 1.05722 13.1973 1.04927 13.1843 1.04285C13.1733 1.03747 13.1624 1.03336 13.1512 1.02874C13.1387 1.02386 13.1261 1.01873 13.1133 1.01514C13.1011 1.01155 13.0885 1.00924 13.076 1.00693C13.0635 1.00462 13.0512 1.00231 13.0384 1.00103C13.0259 1 13.0131 1 13.0003 1C12.9877 1 12.9752 1 12.9627 1.00103C12.9496 1.00231 12.9368 1.00462 12.924 1.00693C12.912 1.00924 12.8997 1.01129 12.888 1.01488C12.8747 1.01873 12.8618 1.02361 12.8488 1.02874C12.8381 1.0331 12.8274 1.03695 12.8168 1.04234C12.8032 1.04901 12.7906 1.05722 12.7778 1.06569C12.7712 1.07005 12.7637 1.07313 12.7573 1.07801C12.7522 1.08186 12.7474 1.08596 12.7424 1.08981C12.7416 1.09033 12.741 1.09084 12.7402 1.09135C10.5779 2.70415 9.28715 4.95745 9.28715 7.12299C9.28715 7.54639 9.33675 7.97263 9.43222 8.39809C9.04179 8.17868 8.63696 7.99931 8.22012 7.86895C6.07967 7.19946 3.45332 7.68496 1.19099 9.16561C1.19072 9.16586 1.19046 9.16586 1.19019 9.16612C1.18459 9.16997 1.17872 9.17305 1.17286 9.1769C1.16566 9.18152 1.16006 9.18768 1.15339 9.19255C1.14165 9.20128 1.13019 9.21 1.11952 9.22001C1.11045 9.22848 1.10272 9.23746 1.09472 9.2467C1.08618 9.25645 1.07765 9.26594 1.07018 9.27646C1.06271 9.28673 1.05658 9.29776 1.05018 9.30854C1.04405 9.31906 1.03818 9.32958 1.03311 9.34062C1.02804 9.35191 1.02404 9.36345 1.02004 9.37526C1.01604 9.38706 1.01231 9.39861 1.00938 9.41067C1.00671 9.42248 1.00511 9.43428 1.00351 9.44634C1.00191 9.45866 1.00031 9.47097 1.00004 9.48355C0.999775 9.49612 1.00084 9.5087 1.00164 9.52127C1.00244 9.53307 1.00324 9.54488 1.00538 9.55668C1.00778 9.57054 1.01178 9.58388 1.01578 9.59748C1.01818 9.60544 1.01898 9.61365 1.02191 9.6216C1.02431 9.62802 1.02698 9.63392 1.02938 9.64034C1.02938 9.64034 1.02938 9.64059 1.02964 9.64059C1.95586 12.1179 3.78428 13.9955 5.92473 14.6648C6.34103 14.7949 6.776 14.878 7.2235 14.9224C6.90561 15.199 6.60398 15.5116 6.33223 15.8716C5.00945 17.6238 4.67715 20.1763 5.44122 22.7039V22.7041C5.44335 22.7111 5.44495 22.718 5.44709 22.7249C5.44815 22.7285 5.45082 22.7313 5.45215 22.7349C5.46469 22.7719 5.48096 22.8068 5.50362 22.8378C5.50416 22.8386 5.50496 22.8394 5.50576 22.8401C5.52763 22.8694 5.55456 22.8948 5.58416 22.9169C5.58923 22.9207 5.59377 22.9248 5.59883 22.9282C5.62844 22.9484 5.66124 22.9646 5.69591 22.9767C5.70231 22.979 5.70871 22.9805 5.71511 22.9823C5.75138 22.9928 5.78898 23 5.82845 23C5.83245 23 5.83619 23 5.84019 22.9997C8.58389 22.923 11.0137 21.8281 12.3399 20.0718C12.5997 19.7277 12.8186 19.3518 13.0019 18.952C13.1869 19.3577 13.4043 19.7344 13.6593 20.0718C14.9855 21.8283 17.4153 22.923 20.159 22.9997C20.1627 23 20.1667 23 20.1707 23C20.2102 23 20.2478 22.9928 20.2841 22.9823C20.2905 22.9805 20.2969 22.979 20.3033 22.9767C20.3382 22.9646 20.3708 22.9487 20.4004 22.9282C20.4057 22.9246 20.41 22.9205 20.415 22.9169C20.4444 22.8945 20.4713 22.8694 20.4932 22.8401C20.494 22.8394 20.4948 22.8386 20.4953 22.8376C20.518 22.8068 20.5345 22.7716 20.5468 22.7349C20.5481 22.7313 20.5508 22.7285 20.5518 22.7249C21.3242 20.1904 20.9932 17.6284 19.6664 15.8716C19.4069 15.528 19.1034 15.2121 18.7656 14.9211C19.2168 14.8778 19.656 14.7954 20.0742 14.6645C22.2146 13.9953 24.0431 12.1177 24.9695 9.64034C24.9727 9.63418 24.9757 9.62828 24.9781 9.62186ZM10.0827 7.12324C10.0827 4.51403 12.0802 2.61151 13.0003 1.8735C13.9201 2.61151 15.9176 4.51454 15.9176 7.12324C15.9176 8.74143 15.0775 10.4481 13.6062 11.8454C13.4214 11.7638 13.2165 11.7168 13.0003 11.7168C12.8643 11.7168 12.733 11.7361 12.6082 11.7699C12.0495 10.7153 11.3241 9.8156 10.4896 9.12558C10.2219 8.4589 10.0827 7.78581 10.0827 7.12324ZM13.0003 13.7582C12.6346 13.7582 12.3373 13.472 12.3373 13.1202C12.3373 12.7684 12.6346 12.4823 13.0003 12.4823C13.3659 12.4823 13.6633 12.7684 13.6633 13.1202C13.6633 13.4723 13.3659 13.7582 13.0003 13.7582ZM6.17115 13.9368C3.59226 13.1305 2.32869 10.7148 1.88358 9.64496C2.89727 9.03089 5.39535 7.79043 7.97423 8.59722C9.57357 9.09735 11.0012 10.3935 11.9274 12.1726C11.7018 12.4087 11.5596 12.7186 11.5447 13.0604C10.6451 13.1947 9.41249 13.5005 8.25319 14.1839C7.5198 14.2203 6.81947 14.1392 6.17115 13.9368ZM11.697 19.6217C10.1032 21.7326 7.32485 22.1422 6.12981 22.2191C5.83645 21.1019 5.38255 18.4328 6.97628 16.3217C7.42379 15.7289 7.96223 15.2717 8.52921 14.918C8.57295 14.9014 8.61269 14.8783 8.64709 14.8488C9.72852 14.2052 10.8966 13.9257 11.7292 13.8067C11.8948 14.0892 12.1589 14.3104 12.4765 14.4284C12.2791 15.5716 12.317 16.7195 12.5888 17.778C12.3986 18.4662 12.1007 19.0875 11.697 19.6217ZM19.024 16.322C20.618 18.4331 20.1641 21.1021 19.8704 22.2194C18.6754 22.1424 15.897 21.7326 14.3033 19.622C13.8963 19.0831 13.5872 18.4339 13.3846 17.6925C13.0488 16.4654 13.1221 15.3196 13.2696 14.499C13.6219 14.4354 13.9291 14.2498 14.1433 13.9894C15.2381 14.5272 16.3739 14.8462 17.4716 14.9322C18.0954 15.3199 18.6189 15.7857 19.024 16.322ZM19.8294 13.9368C18.2271 14.4377 16.2803 14.1967 14.4487 13.2814C14.4551 13.2285 14.4591 13.1749 14.4591 13.1202C14.4591 12.8333 14.3686 12.5665 14.2145 12.3437C15.0842 11.5067 15.7488 10.5649 16.1733 9.58799C16.7496 9.13687 17.3718 8.80173 18.0266 8.59722C20.606 7.79017 23.1035 9.03089 24.1172 9.64496C23.6718 10.7148 22.408 13.1305 19.8294 13.9368Z" fill="white" stroke="white" stroke-width="0.5"/>
</svg>
