<svg width="28" height="20" viewBox="0 0 28 20" fill="none" xmlns="http://www.w3.org/2000/svg">
<path fill-rule="evenodd" clip-rule="evenodd" d="M3.94 1.81818C2.76727 1.81818 1.81818 2.76727 1.81818 3.94V16.06C1.81818 17.2327 2.76727 18.1818 3.94 18.1818H16.06C17.2327 18.1818 18.1818 17.2327 18.1818 16.06V3.94C18.1818 2.76727 17.2327 1.81818 16.06 1.81818H3.94ZM0 3.94C0 1.76364 1.76364 0 3.94 0H16.06C18.2364 0 20 1.76364 20 3.94V16.06C20 18.2364 18.2364 20 16.06 20H3.94C2.89505 20 1.89289 19.5849 1.154 18.846C0.415106 18.1071 0 17.105 0 16.06V3.94Z" fill="white"/>
<path fill-rule="evenodd" clip-rule="evenodd" d="M19.5458 5.72728L24.5785 2.80909C24.665 2.75698 24.7636 2.72842 24.8646 2.72625C24.9655 2.72409 25.0653 2.7484 25.1539 2.79676C25.2425 2.84512 25.3169 2.91585 25.3698 3.00191C25.4226 3.08796 25.4519 3.18635 25.4549 3.28728V16.7127C25.4549 17.1273 24.9822 17.4273 24.5785 17.1927L19.5476 14.2745L18.6349 15.8473L23.6658 18.7655C25.2276 19.6709 27.2731 18.5927 27.2731 16.7127V3.28728C27.2731 1.40909 25.2276 0.330912 23.6658 1.23637L18.6367 4.15455L19.5494 5.72728H19.5458Z" fill="white"/>
</svg>
