<svg width="24" height="22" viewBox="0 0 24 22" fill="none" xmlns="http://www.w3.org/2000/svg">
<path d="M1 11L6.55493 15.4439V12.111H16.5538V9.88899H6.55493V6.55603L1 11Z" fill="white" stroke="#2D2E35" stroke-width="0.5"/>
<path d="M13.2216 1.00004C11.9079 0.996396 10.6066 1.25347 9.39291 1.75636C8.17926 2.25925 7.07746 2.99796 6.15134 3.92971L7.72227 5.50064C9.19099 4.03192 11.1441 3.22201 13.2216 3.22201C15.2992 3.22201 17.2523 4.03192 18.721 5.50064C20.1898 6.96936 20.9997 8.92248 20.9997 11C20.9997 13.0776 20.1898 15.0307 18.721 16.4994C17.2523 17.9681 15.2992 18.778 13.2216 18.778C11.1441 18.778 9.19099 17.9681 7.72227 16.4994L6.15134 18.0703C8.0389 19.959 10.5497 21 13.2216 21C15.8936 21 18.4044 19.959 20.292 18.0703C22.1806 16.1828 23.2216 13.6719 23.2216 11C23.2216 8.3281 22.1806 5.81727 20.292 3.92971C19.3658 2.99796 18.264 2.25925 17.0504 1.75636C15.8367 1.25347 14.5354 0.996396 13.2216 1.00004V1.00004Z" fill="white" stroke="#2D2E35" stroke-width="0.5"/>
</svg>
